<svg xmlns="http://www.w3.org/2000/svg" xmlns:xlink="http://www.w3.org/1999/xlink" width="512" zoomAndPan="magnify" viewBox="0 0 384 383.999986" height="512" preserveAspectRatio="xMidYMid meet" version="1.0"><defs><g/><clipPath id="392d2fe4a6"><path d="M 2 3.359375 L 382 3.359375 L 382 380.609375 L 2 380.609375 Z M 2 3.359375 " clip-rule="nonzero"/></clipPath></defs><g clip-path="url(#392d2fe4a6)"><path fill="#000000" d="M 381.671875 75.898438 C 381.671875 78.019531 381.59375 80.136719 381.4375 82.25 C 381.28125 84.367188 381.046875 86.472656 380.734375 88.570312 C 380.421875 90.667969 380.035156 92.75 379.570312 94.820312 C 379.101562 96.890625 378.5625 98.9375 377.945312 100.96875 C 377.324219 102.996094 376.632812 105 375.867188 106.976562 C 375.101562 108.957031 374.265625 110.902344 373.355469 112.816406 C 372.445312 114.734375 371.46875 116.613281 370.417969 118.457031 C 369.371094 120.300781 368.253906 122.101562 367.074219 123.863281 C 365.890625 125.625 364.648438 127.339844 363.339844 129.007812 C 362.03125 130.675781 360.660156 132.296875 359.234375 133.863281 C 357.804688 135.433594 356.320312 136.945312 354.78125 138.402344 C 353.242188 139.859375 351.648438 141.261719 350.003906 142.601562 C 348.363281 143.941406 346.671875 145.21875 344.933594 146.433594 C 343.195312 147.648438 341.414062 148.800781 339.59375 149.882812 C 337.769531 150.96875 335.910156 151.984375 334.011719 152.929688 C 332.113281 153.875 330.183594 154.75 328.21875 155.554688 L 328.21875 346.960938 C 328.21875 348.042969 328.167969 349.125 328.058594 350.203125 C 327.953125 351.28125 327.796875 352.351562 327.585938 353.414062 C 327.371094 354.472656 327.109375 355.523438 326.796875 356.558594 C 326.480469 357.597656 326.117188 358.613281 325.703125 359.617188 C 325.289062 360.617188 324.824219 361.59375 324.316406 362.546875 C 323.804688 363.503906 323.25 364.429688 322.648438 365.332031 C 322.046875 366.234375 321.402344 367.101562 320.714844 367.9375 C 320.027344 368.777344 319.300781 369.578125 318.535156 370.34375 C 317.769531 371.109375 316.96875 371.835938 316.128906 372.523438 C 315.292969 373.210938 314.421875 373.851562 313.523438 374.453125 C 312.621094 375.054688 311.695312 375.613281 310.738281 376.125 C 309.785156 376.632812 308.808594 377.097656 307.804688 377.511719 C 306.804688 377.925781 305.789062 378.289062 304.75 378.605469 C 303.714844 378.917969 302.664062 379.179688 301.601562 379.390625 C 300.539062 379.601562 299.46875 379.761719 298.394531 379.867188 C 297.316406 379.972656 296.234375 380.027344 295.152344 380.027344 C 294.070312 380.027344 292.988281 379.972656 291.910156 379.867188 C 290.832031 379.761719 289.761719 379.605469 288.699219 379.390625 C 287.636719 379.179688 286.589844 378.917969 285.550781 378.605469 C 284.515625 378.289062 283.496094 377.925781 282.496094 377.511719 C 281.496094 377.097656 280.519531 376.632812 279.5625 376.125 C 278.609375 375.613281 277.679688 375.054688 276.78125 374.453125 C 275.878906 373.851562 275.011719 373.210938 274.171875 372.523438 C 273.335938 371.835938 272.535156 371.109375 271.769531 370.34375 C 271.003906 369.578125 270.277344 368.777344 269.589844 367.9375 C 268.902344 367.101562 268.257812 366.234375 267.65625 365.332031 C 267.054688 364.429688 266.5 363.503906 265.988281 362.546875 C 265.476562 361.59375 265.015625 360.617188 264.601562 359.617188 C 264.1875 358.613281 263.820312 357.597656 263.507812 356.558594 C 263.191406 355.523438 262.929688 354.472656 262.71875 353.414062 C 262.507812 352.351562 262.347656 351.28125 262.242188 350.203125 C 262.136719 349.125 262.082031 348.042969 262.082031 346.960938 L 262.082031 155.554688 L 260.855469 155.035156 C 257.378906 153.53125 254.019531 151.804688 250.769531 149.855469 C 247.523438 147.90625 244.417969 145.75 241.457031 143.390625 C 238.492188 141.03125 235.699219 138.488281 233.070312 135.761719 C 230.445312 133.035156 228.007812 130.144531 225.761719 127.09375 C 223.519531 124.046875 221.484375 120.863281 219.65625 117.542969 C 217.832031 114.226562 216.234375 110.800781 214.859375 107.273438 C 213.488281 103.742188 212.351562 100.140625 211.453125 96.460938 C 210.554688 92.78125 209.90625 89.058594 209.5 85.292969 C 209.09375 81.527344 208.9375 77.753906 209.027344 73.96875 C 209.121094 70.179688 209.460938 66.417969 210.050781 62.675781 C 210.640625 58.9375 211.472656 55.25 212.546875 51.621094 C 213.625 47.988281 214.933594 44.445312 216.476562 40.984375 C 218.023438 37.527344 219.785156 34.1875 221.769531 30.960938 C 223.757812 27.734375 225.945312 24.65625 228.335938 21.71875 C 230.726562 18.78125 233.300781 16.015625 236.058594 13.417969 C 238.816406 10.824219 241.730469 8.417969 244.804688 6.207031 C 245.269531 5.878906 245.773438 5.613281 246.308594 5.417969 C 246.84375 5.21875 247.394531 5.097656 247.960938 5.046875 C 248.53125 4.992188 249.097656 5.015625 249.65625 5.117188 C 250.21875 5.214844 250.757812 5.382812 251.277344 5.625 C 251.808594 5.894531 252.296875 6.230469 252.738281 6.632812 C 253.179688 7.039062 253.554688 7.492188 253.871094 8 C 254.183594 8.511719 254.421875 9.050781 254.585938 9.625 C 254.75 10.199219 254.832031 10.785156 254.835938 11.382812 L 254.835938 66.0625 L 294.894531 89.164062 L 334.949219 66.0625 L 334.949219 11.125 C 334.949219 10.527344 335.027344 9.941406 335.1875 9.363281 C 335.351562 8.789062 335.585938 8.246094 335.898438 7.734375 C 336.210938 7.222656 336.585938 6.765625 337.027344 6.359375 C 337.464844 5.953125 337.949219 5.613281 338.484375 5.34375 C 339.015625 5.070312 339.578125 4.878906 340.164062 4.761719 C 340.75 4.644531 341.339844 4.609375 341.9375 4.65625 C 342.535156 4.707031 343.113281 4.832031 343.671875 5.042969 C 344.234375 5.25 344.757812 5.53125 345.238281 5.882812 C 348.023438 7.867188 350.679688 10.007812 353.210938 12.304688 C 355.742188 14.601562 358.128906 17.039062 360.375 19.617188 C 362.617188 22.195312 364.699219 24.898438 366.625 27.722656 C 368.546875 30.546875 370.300781 33.476562 371.875 36.507812 C 373.453125 39.542969 374.847656 42.65625 376.058594 45.851562 C 377.269531 49.050781 378.285156 52.304688 379.109375 55.621094 C 379.933594 58.941406 380.5625 62.292969 380.988281 65.683594 C 381.417969 69.074219 381.644531 72.480469 381.671875 75.898438 Z M 249.335938 241.808594 C 248.277344 243.035156 247.179688 244.222656 246.046875 245.378906 C 244.914062 246.535156 243.746094 247.652344 242.542969 248.734375 C 241.339844 249.820312 240.105469 250.863281 238.835938 251.867188 C 237.570312 252.871094 236.269531 253.835938 234.941406 254.761719 C 233.613281 255.683594 232.257812 256.566406 230.875 257.40625 C 229.492188 258.246094 228.082031 259.039062 226.648438 259.792969 C 225.214844 260.542969 223.757812 261.25 222.28125 261.910156 C 220.804688 262.570312 219.308594 263.183594 217.792969 263.75 C 216.277344 264.316406 214.746094 264.832031 213.195312 265.304688 C 211.648438 265.777344 210.085938 266.199219 208.511719 266.570312 C 206.9375 266.945312 205.351562 267.269531 203.757812 267.542969 C 202.164062 267.816406 200.5625 268.039062 198.953125 268.214844 C 197.34375 268.386719 195.730469 268.511719 194.113281 268.585938 C 192.496094 268.65625 190.878906 268.679688 189.261719 268.652344 C 187.644531 268.625 186.027344 268.546875 184.414062 268.417969 C 182.800781 268.289062 181.195312 268.109375 179.59375 267.878906 C 177.992188 267.652344 176.398438 267.371094 174.8125 267.042969 C 173.226562 266.714844 171.65625 266.335938 170.09375 265.910156 C 168.535156 265.480469 166.988281 265.003906 165.457031 264.480469 C 163.925781 263.957031 162.414062 263.386719 160.917969 262.769531 C 159.421875 262.148438 157.949219 261.484375 156.492188 260.773438 C 155.039062 260.0625 153.609375 259.308594 152.203125 258.507812 C 150.796875 257.707031 149.417969 256.863281 148.0625 255.976562 C 146.707031 255.089844 145.382812 254.164062 144.085938 253.195312 C 142.792969 252.226562 141.527344 251.214844 140.292969 250.167969 C 139.0625 249.121094 137.863281 248.035156 136.699219 246.910156 C 135.535156 245.789062 134.40625 244.628906 133.3125 243.433594 C 132.21875 242.242188 131.164062 241.015625 130.148438 239.753906 C 129.132812 238.496094 128.160156 237.207031 127.222656 235.882812 C 126.289062 234.5625 125.394531 233.214844 124.542969 231.839844 C 123.695312 230.460938 122.886719 229.0625 122.125 227.632812 C 121.359375 226.207031 120.640625 224.757812 119.96875 223.285156 C 119.296875 221.8125 118.671875 220.324219 118.09375 218.8125 C 117.511719 217.300781 116.980469 215.773438 116.496094 214.230469 C 116.015625 212.683594 115.578125 211.125 115.191406 209.554688 C 114.804688 207.984375 114.46875 206.402344 114.179688 204.808594 C 113.894531 203.21875 113.65625 201.617188 113.46875 200.011719 C 113.28125 198.402344 113.144531 196.792969 113.058594 195.175781 C 112.972656 193.558594 112.933594 191.941406 112.949219 190.324219 C 112.964844 188.707031 113.027344 187.089844 113.144531 185.476562 C 113.257812 183.863281 113.425781 182.253906 113.640625 180.648438 C 113.855469 179.046875 114.121094 177.449219 114.4375 175.863281 C 114.753906 174.277344 115.121094 172.699219 115.535156 171.136719 C 115.949219 169.574219 116.410156 168.023438 116.921875 166.488281 C 117.433594 164.953125 117.992188 163.433594 118.597656 161.933594 C 119.203125 160.433594 119.855469 158.953125 120.554688 157.492188 C 121.253906 156.035156 121.996094 154.597656 122.785156 153.183594 C 123.574219 151.773438 124.40625 150.382812 125.28125 149.023438 C 126.15625 147.660156 127.070312 146.328125 128.03125 145.027344 C 128.988281 143.722656 129.988281 142.449219 131.023438 141.207031 C 132.0625 139.964844 133.140625 138.757812 134.253906 137.585938 C 135.367188 136.410156 136.515625 135.273438 137.699219 134.167969 C 138.882812 133.066406 140.101562 132.003906 141.351562 130.976562 C 142.605469 129.949219 143.886719 128.964844 145.199219 128.019531 C 146.511719 127.070312 147.855469 126.167969 149.222656 125.304688 C 150.59375 124.445312 151.988281 123.625 153.40625 122.851562 C 154.828125 122.074219 156.273438 121.34375 157.738281 120.660156 C 159.203125 119.976562 160.691406 119.335938 162.195312 118.746094 C 163.703125 118.152344 165.226562 117.609375 166.765625 117.113281 C 168.304688 116.617188 169.859375 116.167969 171.429688 115.769531 C 172.996094 115.367188 174.574219 115.019531 176.164062 114.71875 C 177.757812 114.417969 179.355469 114.164062 180.960938 113.964844 C 182.566406 113.765625 184.175781 113.613281 185.789062 113.511719 C 187.40625 113.414062 189.023438 113.363281 190.640625 113.363281 C 195.117188 113.390625 199.558594 113.777344 203.972656 114.527344 C 201.378906 108.386719 199.425781 102.046875 198.105469 95.511719 C 196.789062 88.972656 196.132812 82.371094 196.140625 75.703125 C 196.105469 69.523438 196.667969 63.398438 197.824219 57.328125 C 199.289062 49.53125 201.664062 42.019531 204.949219 34.796875 C 208.230469 27.578125 212.328125 20.851562 217.238281 14.621094 L 216.460938 8.730469 C 216.40625 8.34375 216.316406 7.96875 216.195312 7.597656 C 216.074219 7.230469 215.917969 6.875 215.730469 6.53125 C 215.542969 6.191406 215.328125 5.867188 215.082031 5.566406 C 214.839844 5.261719 214.570312 4.984375 214.273438 4.730469 C 213.976562 4.476562 213.664062 4.25 213.328125 4.054688 C 212.992188 3.855469 212.640625 3.691406 212.273438 3.558594 C 211.910156 3.425781 211.535156 3.324219 211.148438 3.257812 C 210.765625 3.191406 210.378906 3.160156 209.988281 3.164062 L 171.164062 3.164062 C 170.773438 3.160156 170.386719 3.191406 170.003906 3.257812 C 169.621094 3.324219 169.246094 3.425781 168.878906 3.558594 C 168.511719 3.691406 168.160156 3.855469 167.824219 4.054688 C 167.488281 4.25 167.175781 4.476562 166.878906 4.730469 C 166.585938 4.984375 166.3125 5.261719 166.070312 5.566406 C 165.824219 5.867188 165.609375 6.191406 165.421875 6.53125 C 165.234375 6.875 165.078125 7.230469 164.957031 7.597656 C 164.835938 7.96875 164.746094 8.34375 164.691406 8.730469 L 158.21875 58.878906 C 144.8125 62.175781 132.214844 67.417969 120.429688 74.605469 L 80.175781 43.996094 C 79.867188 43.761719 79.539062 43.558594 79.195312 43.382812 C 78.851562 43.210938 78.492188 43.066406 78.121094 42.957031 C 77.75 42.84375 77.371094 42.769531 76.984375 42.726562 C 76.601562 42.683594 76.214844 42.675781 75.828125 42.703125 C 75.441406 42.726562 75.0625 42.789062 74.6875 42.882812 C 74.3125 42.980469 73.945312 43.105469 73.59375 43.265625 C 73.242188 43.425781 72.90625 43.617188 72.589844 43.839844 C 72.269531 44.058594 71.972656 44.304688 71.699219 44.578125 L 44.261719 72.082031 C 43.980469 72.347656 43.726562 72.640625 43.496094 72.953125 C 43.269531 73.265625 43.070312 73.597656 42.902344 73.949219 C 42.730469 74.296875 42.597656 74.660156 42.492188 75.03125 C 42.386719 75.40625 42.320312 75.785156 42.28125 76.171875 C 42.246094 76.558594 42.246094 76.945312 42.28125 77.332031 C 42.316406 77.71875 42.382812 78.101562 42.488281 78.472656 C 42.589844 78.847656 42.722656 79.210938 42.890625 79.558594 C 43.058594 79.910156 43.257812 80.242188 43.484375 80.558594 L 74.417969 120.480469 C 67.242188 132.273438 62 144.871094 58.691406 158.273438 L 8.605469 164.742188 C 8.214844 164.792969 7.835938 164.878906 7.464844 165 C 7.089844 165.121094 6.730469 165.273438 6.386719 165.457031 C 6.039062 165.640625 5.714844 165.855469 5.410156 166.101562 C 5.101562 166.347656 4.820312 166.617188 4.5625 166.910156 C 4.308594 167.207031 4.078125 167.523438 3.878906 167.859375 C 3.679688 168.199219 3.511719 168.550781 3.375 168.917969 C 3.238281 169.285156 3.136719 169.660156 3.070312 170.046875 C 3.003906 170.433594 2.972656 170.820312 2.976562 171.214844 L 2.976562 210.039062 C 2.972656 210.429688 3.003906 210.820312 3.070312 211.203125 C 3.136719 211.589844 3.238281 211.96875 3.375 212.335938 C 3.511719 212.703125 3.679688 213.054688 3.878906 213.390625 C 4.078125 213.730469 4.308594 214.046875 4.5625 214.339844 C 4.820312 214.636719 5.101562 214.90625 5.410156 215.152344 C 5.714844 215.394531 6.039062 215.609375 6.386719 215.796875 C 6.730469 215.980469 7.089844 216.132812 7.464844 216.253906 C 7.835938 216.375 8.214844 216.457031 8.605469 216.507812 L 58.691406 222.980469 C 62 236.382812 67.242188 248.980469 74.417969 260.769531 L 43.484375 301.664062 C 43.25 301.972656 43.046875 302.300781 42.871094 302.648438 C 42.699219 302.992188 42.554688 303.351562 42.445312 303.722656 C 42.332031 304.09375 42.257812 304.472656 42.214844 304.855469 C 42.171875 305.242188 42.164062 305.625 42.191406 306.011719 C 42.214844 306.398438 42.277344 306.78125 42.371094 307.15625 C 42.46875 307.53125 42.59375 307.894531 42.753906 308.246094 C 42.914062 308.601562 43.105469 308.9375 43.324219 309.253906 C 43.546875 309.574219 43.792969 309.867188 44.066406 310.140625 L 71.503906 337.578125 C 71.78125 337.851562 72.074219 338.101562 72.394531 338.320312 C 72.710938 338.539062 73.046875 338.730469 73.398438 338.890625 C 73.753906 339.050781 74.117188 339.179688 74.492188 339.273438 C 74.867188 339.367188 75.25 339.429688 75.636719 339.457031 C 76.023438 339.484375 76.40625 339.476562 76.792969 339.433594 C 77.175781 339.390625 77.554688 339.3125 77.925781 339.203125 C 78.296875 339.089844 78.65625 338.949219 79 338.773438 C 79.347656 338.597656 79.675781 338.394531 79.984375 338.160156 L 120.167969 307.425781 C 131.949219 314.628906 144.546875 319.871094 157.960938 323.148438 L 164.433594 373.234375 C 164.484375 373.621094 164.570312 374.003906 164.6875 374.375 C 164.808594 374.75 164.960938 375.105469 165.148438 375.453125 C 165.332031 375.796875 165.546875 376.125 165.792969 376.429688 C 166.035156 376.734375 166.304688 377.015625 166.601562 377.273438 C 166.898438 377.53125 167.214844 377.757812 167.550781 377.960938 C 167.886719 378.160156 168.238281 378.328125 168.605469 378.460938 C 168.972656 378.597656 169.351562 378.699219 169.738281 378.765625 C 170.125 378.835938 170.511719 378.867188 170.902344 378.863281 L 209.730469 378.863281 C 210.121094 378.867188 210.511719 378.835938 210.898438 378.765625 C 211.285156 378.699219 211.660156 378.597656 212.027344 378.460938 C 212.394531 378.328125 212.746094 378.160156 213.085938 377.960938 C 213.421875 377.757812 213.738281 377.53125 214.035156 377.273438 C 214.328125 377.015625 214.597656 376.734375 214.84375 376.429688 C 215.089844 376.125 215.304688 375.796875 215.488281 375.453125 C 215.671875 375.105469 215.824219 374.75 215.945312 374.375 C 216.066406 374.003906 216.152344 373.621094 216.203125 373.234375 L 222.671875 323.148438 C 231.75 320.914062 240.484375 317.742188 248.882812 313.636719 Z M 192.96875 142.871094 C 191.394531 142.871094 189.820312 142.949219 188.25 143.101562 C 186.683594 143.257812 185.125 143.488281 183.578125 143.796875 C 182.03125 144.105469 180.503906 144.488281 178.996094 144.945312 C 177.484375 145.402344 176.003906 145.933594 174.546875 146.535156 C 173.089844 147.140625 171.664062 147.8125 170.273438 148.554688 C 168.882812 149.300781 167.535156 150.109375 166.222656 150.984375 C 164.910156 151.859375 163.644531 152.800781 162.425781 153.800781 C 161.207031 154.800781 160.042969 155.855469 158.925781 156.972656 C 157.8125 158.085938 156.753906 159.253906 155.753906 160.472656 C 154.753906 161.691406 153.816406 162.957031 152.9375 164.265625 C 152.0625 165.578125 151.253906 166.929688 150.507812 168.320312 C 149.765625 169.710938 149.09375 171.132812 148.488281 172.589844 C 147.886719 174.046875 147.355469 175.53125 146.898438 177.039062 C 146.441406 178.546875 146.058594 180.074219 145.75 181.621094 C 145.441406 183.167969 145.210938 184.726562 145.054688 186.296875 C 144.902344 187.863281 144.824219 189.4375 144.824219 191.015625 C 144.824219 192.589844 144.902344 194.164062 145.054688 195.734375 C 145.210938 197.300781 145.441406 198.859375 145.75 200.40625 C 146.058594 201.953125 146.441406 203.480469 146.898438 204.988281 C 147.355469 206.5 147.886719 207.980469 148.488281 209.4375 C 149.09375 210.894531 149.765625 212.316406 150.507812 213.707031 C 151.253906 215.097656 152.0625 216.449219 152.9375 217.761719 C 153.816406 219.070312 154.753906 220.335938 155.753906 221.554688 C 156.753906 222.773438 157.8125 223.941406 158.925781 225.054688 C 160.042969 226.171875 161.207031 227.230469 162.425781 228.230469 C 163.644531 229.230469 164.910156 230.167969 166.222656 231.042969 C 167.535156 231.917969 168.882812 232.730469 170.273438 233.472656 C 171.664062 234.214844 173.089844 234.890625 174.546875 235.492188 C 176.003906 236.097656 177.484375 236.625 178.996094 237.085938 C 180.503906 237.542969 182.03125 237.925781 183.578125 238.230469 C 185.125 238.539062 186.683594 238.769531 188.25 238.925781 C 189.820312 239.082031 191.394531 239.15625 192.96875 239.15625 C 194.546875 239.15625 196.121094 239.082031 197.691406 238.925781 C 199.257812 238.769531 200.816406 238.539062 202.363281 238.230469 C 203.910156 237.925781 205.4375 237.542969 206.945312 237.085938 C 208.457031 236.625 209.9375 236.097656 211.394531 235.492188 C 212.851562 234.890625 214.277344 234.214844 215.667969 233.472656 C 217.058594 232.730469 218.40625 231.917969 219.71875 231.042969 C 221.03125 230.167969 222.296875 229.230469 223.515625 228.230469 C 224.734375 227.230469 225.898438 226.171875 227.015625 225.054688 C 228.128906 223.941406 229.1875 222.773438 230.1875 221.554688 C 231.1875 220.335938 232.125 219.070312 233.003906 217.761719 C 233.878906 216.449219 234.6875 215.097656 235.433594 213.707031 C 236.175781 212.316406 236.847656 210.894531 237.453125 209.4375 C 238.054688 207.980469 238.585938 206.5 239.042969 204.988281 C 239.5 203.480469 239.882812 201.953125 240.191406 200.40625 C 240.5 198.859375 240.730469 197.300781 240.886719 195.734375 C 241.039062 194.164062 241.117188 192.589844 241.117188 191.015625 C 241.117188 189.4375 241.039062 187.863281 240.886719 186.296875 C 240.730469 184.726562 240.5 183.167969 240.191406 181.621094 C 239.882812 180.074219 239.5 178.546875 239.042969 177.039062 C 238.585938 175.53125 238.054688 174.046875 237.453125 172.589844 C 236.847656 171.132812 236.175781 169.710938 235.433594 168.320312 C 234.6875 166.929688 233.878906 165.578125 233.003906 164.265625 C 232.125 162.957031 231.1875 161.691406 230.1875 160.472656 C 229.1875 159.253906 228.128906 158.085938 227.015625 156.972656 C 225.898438 155.855469 224.734375 154.800781 223.515625 153.800781 C 222.296875 152.800781 221.03125 151.859375 219.71875 150.984375 C 218.40625 150.109375 217.058594 149.300781 215.667969 148.554688 C 214.277344 147.8125 212.851562 147.140625 211.394531 146.535156 C 209.9375 145.933594 208.457031 145.402344 206.945312 144.945312 C 205.4375 144.488281 203.910156 144.105469 202.363281 143.796875 C 200.816406 143.488281 199.257812 143.257812 197.691406 143.101562 C 196.121094 142.949219 194.546875 142.871094 192.96875 142.871094 Z M 192.96875 142.871094 " fill-opacity="1" fill-rule="nonzero"/></g><g fill="#ffffff" fill-opacity="1"><g transform="translate(162.937494, 202.874984)"><g><path d="M 11.75 -21.21875 C 11.75 -20.820312 11.660156 -20.46875 11.484375 -20.15625 C 11.304688 -19.84375 11.070312 -19.578125 10.78125 -19.359375 C 10.488281 -19.140625 10.164062 -18.957031 9.8125 -18.8125 C 9.457031 -18.664062 9.113281 -18.5625 8.78125 -18.5 C 8.738281 -16.144531 8.648438 -13.875 8.515625 -11.6875 C 8.378906 -9.5 8.164062 -7.238281 7.875 -4.90625 L 8.0625 -4.90625 C 8.394531 -4.90625 8.722656 -4.867188 9.046875 -4.796875 C 9.367188 -4.722656 9.660156 -4.597656 9.921875 -4.421875 C 10.179688 -4.242188 10.390625 -4.023438 10.546875 -3.765625 C 10.703125 -3.503906 10.78125 -3.1875 10.78125 -2.8125 C 10.78125 -2.332031 10.628906 -1.914062 10.328125 -1.5625 C 10.023438 -1.207031 9.628906 -0.90625 9.140625 -0.65625 C 8.648438 -0.40625 8.101562 -0.195312 7.5 -0.03125 C 6.894531 0.132812 6.289062 0.265625 5.6875 0.359375 C 5.082031 0.453125 4.507812 0.519531 3.96875 0.5625 C 3.425781 0.601562 2.988281 0.625 2.65625 0.625 C 2.40625 0.625 2.097656 0.613281 1.734375 0.59375 C 1.367188 0.570312 1.023438 0.507812 0.703125 0.40625 C 0.378906 0.300781 0.101562 0.144531 -0.125 -0.0625 C -0.351562 -0.269531 -0.46875 -0.550781 -0.46875 -0.90625 C -0.46875 -1.34375 -0.378906 -1.734375 -0.203125 -2.078125 C -0.0234375 -2.421875 0.207031 -2.726562 0.5 -3 C 0.789062 -3.269531 1.117188 -3.488281 1.484375 -3.65625 C 1.847656 -3.820312 2.21875 -3.945312 2.59375 -4.03125 C 2.738281 -5.175781 2.875 -6.316406 3 -7.453125 C 3.125 -8.585938 3.207031 -9.738281 3.25 -10.90625 C 3.289062 -12.09375 3.332031 -13.265625 3.375 -14.421875 C 3.414062 -15.578125 3.457031 -16.738281 3.5 -17.90625 C 3.351562 -17.882812 3.21875 -17.867188 3.09375 -17.859375 C 2.96875 -17.847656 2.851562 -17.84375 2.75 -17.84375 C 2.457031 -17.84375 2.144531 -17.875 1.8125 -17.9375 C 1.476562 -18 1.164062 -18.109375 0.875 -18.265625 C 0.582031 -18.421875 0.335938 -18.613281 0.140625 -18.84375 C -0.0546875 -19.070312 -0.15625 -19.363281 -0.15625 -19.71875 C -0.15625 -20.425781 0.140625 -21.007812 0.734375 -21.46875 C 1.328125 -21.925781 2.035156 -22.28125 2.859375 -22.53125 C 3.679688 -22.78125 4.519531 -22.953125 5.375 -23.046875 C 6.226562 -23.140625 6.914062 -23.1875 7.4375 -23.1875 C 7.726562 -23.1875 8.113281 -23.164062 8.59375 -23.125 C 9.070312 -23.082031 9.546875 -22.988281 10.015625 -22.84375 C 10.484375 -22.695312 10.890625 -22.5 11.234375 -22.25 C 11.578125 -22 11.75 -21.65625 11.75 -21.21875 Z M 11.75 -21.21875 "/></g></g></g><g fill="#ffffff" fill-opacity="1"><g transform="translate(174.184747, 202.874984)"><g><path d="M 11.75 -21.21875 C 11.75 -20.820312 11.660156 -20.46875 11.484375 -20.15625 C 11.304688 -19.84375 11.070312 -19.578125 10.78125 -19.359375 C 10.488281 -19.140625 10.164062 -18.957031 9.8125 -18.8125 C 9.457031 -18.664062 9.113281 -18.5625 8.78125 -18.5 C 8.738281 -16.144531 8.648438 -13.875 8.515625 -11.6875 C 8.378906 -9.5 8.164062 -7.238281 7.875 -4.90625 L 8.0625 -4.90625 C 8.394531 -4.90625 8.722656 -4.867188 9.046875 -4.796875 C 9.367188 -4.722656 9.660156 -4.597656 9.921875 -4.421875 C 10.179688 -4.242188 10.390625 -4.023438 10.546875 -3.765625 C 10.703125 -3.503906 10.78125 -3.1875 10.78125 -2.8125 C 10.78125 -2.332031 10.628906 -1.914062 10.328125 -1.5625 C 10.023438 -1.207031 9.628906 -0.90625 9.140625 -0.65625 C 8.648438 -0.40625 8.101562 -0.195312 7.5 -0.03125 C 6.894531 0.132812 6.289062 0.265625 5.6875 0.359375 C 5.082031 0.453125 4.507812 0.519531 3.96875 0.5625 C 3.425781 0.601562 2.988281 0.625 2.65625 0.625 C 2.40625 0.625 2.097656 0.613281 1.734375 0.59375 C 1.367188 0.570312 1.023438 0.507812 0.703125 0.40625 C 0.378906 0.300781 0.101562 0.144531 -0.125 -0.0625 C -0.351562 -0.269531 -0.46875 -0.550781 -0.46875 -0.90625 C -0.46875 -1.34375 -0.378906 -1.734375 -0.203125 -2.078125 C -0.0234375 -2.421875 0.207031 -2.726562 0.5 -3 C 0.789062 -3.269531 1.117188 -3.488281 1.484375 -3.65625 C 1.847656 -3.820312 2.21875 -3.945312 2.59375 -4.03125 C 2.738281 -5.175781 2.875 -6.316406 3 -7.453125 C 3.125 -8.585938 3.207031 -9.738281 3.25 -10.90625 C 3.289062 -12.09375 3.332031 -13.265625 3.375 -14.421875 C 3.414062 -15.578125 3.457031 -16.738281 3.5 -17.90625 C 3.351562 -17.882812 3.21875 -17.867188 3.09375 -17.859375 C 2.96875 -17.847656 2.851562 -17.84375 2.75 -17.84375 C 2.457031 -17.84375 2.144531 -17.875 1.8125 -17.9375 C 1.476562 -18 1.164062 -18.109375 0.875 -18.265625 C 0.582031 -18.421875 0.335938 -18.613281 0.140625 -18.84375 C -0.0546875 -19.070312 -0.15625 -19.363281 -0.15625 -19.71875 C -0.15625 -20.425781 0.140625 -21.007812 0.734375 -21.46875 C 1.328125 -21.925781 2.035156 -22.28125 2.859375 -22.53125 C 3.679688 -22.78125 4.519531 -22.953125 5.375 -23.046875 C 6.226562 -23.140625 6.914062 -23.1875 7.4375 -23.1875 C 7.726562 -23.1875 8.113281 -23.164062 8.59375 -23.125 C 9.070312 -23.082031 9.546875 -22.988281 10.015625 -22.84375 C 10.484375 -22.695312 10.890625 -22.5 11.234375 -22.25 C 11.578125 -22 11.75 -21.65625 11.75 -21.21875 Z M 11.75 -21.21875 "/></g></g></g><g fill="#ffffff" fill-opacity="1"><g transform="translate(185.431999, 202.874984)"><g><path d="M 17.6875 -10.96875 C 17.6875 -10.113281 17.644531 -9.234375 17.5625 -8.328125 C 17.476562 -7.421875 17.332031 -6.539062 17.125 -5.6875 C 16.914062 -4.832031 16.628906 -4.023438 16.265625 -3.265625 C 15.898438 -2.503906 15.4375 -1.835938 14.875 -1.265625 C 14.3125 -0.691406 13.632812 -0.238281 12.84375 0.09375 C 12.050781 0.425781 11.125 0.59375 10.0625 0.59375 C 8.5 0.59375 7.140625 0.226562 5.984375 -0.5 C 4.828125 -1.226562 3.863281 -2.160156 3.09375 -3.296875 C 2.320312 -4.429688 1.75 -5.703125 1.375 -7.109375 C 1 -8.515625 0.8125 -9.90625 0.8125 -11.28125 C 0.8125 -11.425781 0.8125 -11.5625 0.8125 -11.6875 C 0.8125 -11.8125 0.820312 -11.925781 0.84375 -12.03125 C 0.863281 -12.46875 0.898438 -13.0625 0.953125 -13.8125 C 1.003906 -14.5625 1.09375 -15.363281 1.21875 -16.21875 C 1.34375 -17.070312 1.503906 -17.945312 1.703125 -18.84375 C 1.898438 -19.738281 2.160156 -20.539062 2.484375 -21.25 C 2.804688 -21.957031 3.195312 -22.539062 3.65625 -23 C 4.113281 -23.457031 4.65625 -23.6875 5.28125 -23.6875 C 5.738281 -23.6875 6.125 -23.550781 6.4375 -23.28125 C 6.75 -23.007812 7.003906 -22.671875 7.203125 -22.265625 C 7.398438 -21.859375 7.539062 -21.429688 7.625 -20.984375 C 7.707031 -20.535156 7.75 -20.125 7.75 -19.75 C 7.75 -19.1875 7.691406 -18.617188 7.578125 -18.046875 C 7.460938 -17.472656 7.351562 -16.90625 7.25 -16.34375 C 7.082031 -15.445312 6.945312 -14.550781 6.84375 -13.65625 C 6.738281 -12.757812 6.6875 -11.84375 6.6875 -10.90625 C 6.6875 -10.425781 6.710938 -9.84375 6.765625 -9.15625 C 6.816406 -8.46875 6.945312 -7.804688 7.15625 -7.171875 C 7.363281 -6.535156 7.660156 -5.992188 8.046875 -5.546875 C 8.429688 -5.097656 8.957031 -4.875 9.625 -4.875 C 10.269531 -4.875 10.785156 -5.09375 11.171875 -5.53125 C 11.554688 -5.96875 11.84375 -6.488281 12.03125 -7.09375 C 12.21875 -7.695312 12.335938 -8.332031 12.390625 -9 C 12.441406 -9.664062 12.46875 -10.238281 12.46875 -10.71875 C 12.46875 -12.09375 12.351562 -13.453125 12.125 -14.796875 C 11.894531 -16.140625 11.59375 -17.476562 11.21875 -18.8125 C 11.113281 -19.164062 11.023438 -19.519531 10.953125 -19.875 C 10.878906 -20.226562 10.84375 -20.582031 10.84375 -20.9375 C 10.84375 -21.519531 11.015625 -22.03125 11.359375 -22.46875 C 11.703125 -22.90625 12.1875 -23.125 12.8125 -23.125 C 13.332031 -23.125 13.816406 -22.921875 14.265625 -22.515625 C 14.710938 -22.109375 15.113281 -21.578125 15.46875 -20.921875 C 15.820312 -20.265625 16.128906 -19.53125 16.390625 -18.71875 C 16.648438 -17.90625 16.875 -17.097656 17.0625 -16.296875 C 17.25 -15.492188 17.390625 -14.726562 17.484375 -14 C 17.578125 -13.269531 17.632812 -12.675781 17.65625 -12.21875 C 17.675781 -12.007812 17.6875 -11.804688 17.6875 -11.609375 C 17.6875 -11.410156 17.6875 -11.195312 17.6875 -10.96875 Z M 17.6875 -10.96875 "/></g></g></g><g fill="#ffffff" fill-opacity="1"><g transform="translate(204.239905, 202.874984)"><g><path d="M 8.09375 1.03125 C 6.820312 1.03125 5.71875 0.710938 4.78125 0.078125 C 3.84375 -0.554688 3.066406 -1.410156 2.453125 -2.484375 C 1.835938 -3.554688 1.378906 -4.800781 1.078125 -6.21875 C 0.773438 -7.632812 0.625 -9.125 0.625 -10.6875 C 0.625 -12.144531 0.785156 -13.625 1.109375 -15.125 C 1.429688 -16.625 1.925781 -17.976562 2.59375 -19.1875 C 3.257812 -20.394531 4.101562 -21.382812 5.125 -22.15625 C 6.144531 -22.925781 7.363281 -23.3125 8.78125 -23.3125 C 10.15625 -23.3125 11.304688 -22.941406 12.234375 -22.203125 C 13.160156 -21.460938 13.898438 -20.503906 14.453125 -19.328125 C 15.003906 -18.148438 15.398438 -16.832031 15.640625 -15.375 C 15.878906 -13.914062 16 -12.457031 16 -11 C 16 -9.375 15.835938 -7.835938 15.515625 -6.390625 C 15.191406 -4.941406 14.703125 -3.664062 14.046875 -2.5625 C 13.390625 -1.457031 12.566406 -0.582031 11.578125 0.0625 C 10.585938 0.707031 9.425781 1.03125 8.09375 1.03125 Z M 8.46875 -16.40625 C 8.070312 -16.40625 7.734375 -16.25 7.453125 -15.9375 C 7.171875 -15.625 6.9375 -15.210938 6.75 -14.703125 C 6.5625 -14.191406 6.425781 -13.617188 6.34375 -12.984375 C 6.257812 -12.347656 6.21875 -11.707031 6.21875 -11.0625 C 6.21875 -10.332031 6.265625 -9.601562 6.359375 -8.875 C 6.453125 -8.144531 6.59375 -7.488281 6.78125 -6.90625 C 6.96875 -6.320312 7.203125 -5.851562 7.484375 -5.5 C 7.765625 -5.144531 8.101562 -4.96875 8.5 -4.96875 C 8.957031 -4.96875 9.320312 -5.195312 9.59375 -5.65625 C 9.863281 -6.113281 10.078125 -6.664062 10.234375 -7.3125 C 10.390625 -7.957031 10.492188 -8.625 10.546875 -9.3125 C 10.597656 -10 10.625 -10.570312 10.625 -11.03125 C 10.625 -11.59375 10.585938 -12.1875 10.515625 -12.8125 C 10.441406 -13.4375 10.320312 -14.015625 10.15625 -14.546875 C 9.988281 -15.078125 9.769531 -15.519531 9.5 -15.875 C 9.226562 -16.226562 8.882812 -16.40625 8.46875 -16.40625 Z M 8.46875 -16.40625 "/></g></g></g></svg>
